<svg width="32" height="32" viewBox="0 0 32 32" fill="none" xmlns="http://www.w3.org/2000/svg">
<path d="M11.05 4.65C11.05 7.45 9.3 9.75 7.15 9.7C0.85 9.55 3.45 1 3.45 1C5.6 1 11.05 1.85 11.05 4.65Z" fill="#F29A2E"/>
<path d="M8.65 5.2C8.65 6.7 7.7 7.9 6.55 7.9C3.2 7.8 4.55 3.25 4.55 3.25C5.75 3.25 8.65 3.7 8.65 5.2Z" fill="#BC600D"/>
<path d="M20.95 4.65C20.95 7.45 22.7 9.75 24.85 9.7C31.15 9.55 28.55 1 28.55 1C26.4 1 20.95 1.85 20.95 4.65" fill="#F29A2E"/>
<path d="M23.35 5.2C23.35 6.7 24.3 7.9 25.45 7.9C28.8 7.8 27.45 3.25 27.45 3.25C26.25 3.25 23.35 3.7 23.35 5.2Z" fill="#BC600D"/>
<path d="M29 20.85C29 25.4 3 25.4 3 20.85C3 1.9 10.45 2.4 16 2.4C21.55 2.4 29 1.9 29 20.85Z" fill="#F29A2E"/>
<path d="M21.25 6.3C20.1 1.95 11.9 1.85 10.8 6.35C13.05 4.35 18.95 4.35 21.25 6.3Z" fill="#3E4347"/>
<path d="M19.6 8C18.85 5.05 13.2 5 12.45 8C14.3 6.4 17.7 6.4 19.6 8Z" fill="#3E4347"/>
<path d="M31 18.3C30.9 13.7 28.1 11.4 28.1 11.4C28.1 11.4 29.8 28.35 19.8 20.15H12.15C2.2 28.3 3.9 11.4 3.9 11.4C3.9 11.4 1.1 13.7 1 18.3L2.35 17.5C2.35 17.5 0.95 20.55 2.45 24.3L3.9 22.6C3.9 22.6 4.3 26.15 8.15 27.95L8.35 26.4C8.35 26.4 11.25 28.7 16 28.7C20.75 28.7 23.65 26.4 23.65 26.4L23.85 27.95C27.7 26.15 28.1 22.6 28.1 22.6L29.55 24.3C31.1 20.55 29.65 17.5 29.65 17.5L31 18.3Z" fill="#FFE8BB"/>
<path d="M12.15 20.15C12.15 20.15 3.7 26.5 3.85 11.4C3.9 11.4 1.85 29.35 12.15 20.15Z" fill="#3E4347"/>
<path d="M19.85 20.15C19.85 20.15 28.3 26.5 28.15 11.4C28.1 11.4 30.15 29.35 19.85 20.15" fill="#3E4347"/>
<path d="M18.8 14.7C20.3 18.8 19.8 20.1 19.8 20.1L16.05 21.2L12.1 20.1C12.1 20.1 11.6 18.75 13.1 14.7C6.5 25.65 12.7 27.1 12.7 27.1C12.7 27.1 12.4 28.9 14.3 30.4V29.2C14.3 29.2 14.7 30.3 15.9 30.95C17.1 30.3 17.5 29.2 17.5 29.2V30.4C18.55 29.8 18.9 28.55 18.9 28.55L19.35 29.45C20.85 27.3 20.3 25.8 19.85 25.1C19.85 25.15 19.9 25.15 19.9 25.15C19.9 25.15 25.4 25.65 18.8 14.7" fill="#F5F5F5"/>
<path d="M16 25.05C15.85 24.6 15.5 22.35 15.55 20.95H16.4C16.35 22.2 16.7 24.45 16.8 24.75L16 25.05" fill="#3E4347"/>
<path d="M19.8133 23.8492C15.6541 26.2619 13.0166 26.6475 12.354 23.8846C13.9242 25.9574 16.9402 23.7583 19.8133 23.8492Z" fill="#3E4347"/>
<path d="M19.7 19.9C18.25 19.25 13.65 19.3 12.25 19.9C11.7 20.15 13.25 21.65 15.95 21.65C18.75 21.65 20.25 20.15 19.7 19.9Z" fill="#947151"/>
<path d="M13.65 13.8C12.55 20.8 4.5 19.05 4.5 12.95C4.5 9.7 4.5 9.7 9.55 8.6C14.65 7.45 14.1 11.2 13.65 13.8Z" fill="#FFE8BB"/>
<path d="M12.85 14.15C12.35 19.1 5.05 18.3 5.5 13.35C5.7 11.45 5.7 11.25 9.35 11.65C13.05 12.05 13 12.25 12.85 14.15Z" fill="#3E4347"/>
<path d="M11.75 13.85C11.4 16.85 6.25 16.4 6.6 13.4C6.75 12.3 6.75 12.2 9.3 12.45C11.9 12.7 11.9 12.75 11.75 13.85" fill="white"/>
<path d="M11.35 13.25C11.35 13.95 10.8 14.5 10.15 14.5C9.5 14.5 8.95 13.95 8.95 13.25C8.95 12.55 9.5 12.15 10.15 12.15C10.8 12.15 11.35 12.6 11.35 13.25Z" fill="#3E4347"/>
<path d="M18.3 13.8C19.4 20.75 27.45 19.05 27.45 12.9C27.45 9.65 27.45 9.65 22.4 8.55C17.35 7.45 17.9 11.2 18.3 13.8Z" fill="#FFE8BB"/>
<path d="M19.15 14.15C19.65 19.1 26.95 18.3 26.5 13.35C26.3 11.45 26.3 11.25 22.65 11.65C18.95 12.05 18.95 12.25 19.15 14.15Z" fill="#3E4347"/>
<path d="M20.2 13.85C20.55 16.85 25.7 16.4 25.35 13.4C25.2 12.3 25.2 12.2 22.65 12.45C20.1 12.7 20.1 12.75 20.2 13.85" fill="white"/>
<path d="M22.6 13.25C22.6 13.95 23.15 14.5 23.8 14.5C24.45 14.5 25 13.95 25 13.25C25 12.55 24.45 12.15 23.8 12.15C23.15 12.15 22.6 12.6 22.6 13.25Z" fill="#3E4347"/>
</svg>
